<svg id="Universität_Zürich_logo" xmlns="http://www.w3.org/2000/svg" width="266.387" height="116.01" viewBox="0 0 266.387 116.01">
  <path id="path2672" d="M.092,0,0,116.01H266.3L266.387,0Z" transform="translate(0)" fill="none"/>
  <path id="path2684" d="M65.75,70.488V33.637h-.791V29.573a3.069,3.069,0,0,0-.306-1.343,2.919,2.919,0,0,0-.229-.419V26.345a4.864,4.864,0,0,0-.478-2.02,4.146,4.146,0,0,0-2.01-1.67,1.309,1.309,0,0,0-.2-.081l-.081-.027-.1.027a3.422,3.422,0,0,0-1.6,1.294,4.491,4.491,0,0,0-.715,2.488c0,.056,0,.088,0,.091V27.8a4.492,4.492,0,0,0-.358.635,3.5,3.5,0,0,0-.231,1.28v3.922h-.794V47.09l-2.179-2.177V41.073L54.94,38.6l-1.081-8.5h0l-.8,8.145-.742,2.836v3.557l-2.157,2.157V33.637h-.791V29.573a3.067,3.067,0,0,0-.3-1.343,3.271,3.271,0,0,0-.229-.419V26.345a4.892,4.892,0,0,0-.478-2.02,4.155,4.155,0,0,0-2.012-1.67,1.309,1.309,0,0,0-.2-.081l-.081-.027-.1.027a3.429,3.429,0,0,0-1.6,1.294,4.472,4.472,0,0,0-.713,2.488V27.8a4.362,4.362,0,0,0-.357.635,3.509,3.509,0,0,0-.232,1.28v3.922h-.794V70.488H22.909a35.2,35.2,0,1,1,61.9,0Zm-.965,0H58.511V62.137h6.275Zm0-8.893H58.511V56.656h6.275Zm0-5.479H58.511V48.548h6.275ZM62.85,44.836v3.171h-2.4V44.831a1.951,1.951,0,0,1,.579-1.447A1.89,1.89,0,0,1,61.649,43h0a1.858,1.858,0,0,1,.618.385,1.951,1.951,0,0,1,.579,1.447Zm1.936-3.188v6.359H63.391V44.831a2.5,2.5,0,0,0-.748-1.838,2.391,2.391,0,0,0-.875-.532c-.014-.006-.118-.038-.118-.038s-.1.032-.107.037a2.424,2.424,0,0,0-.885.533,2.5,2.5,0,0,0-.747,1.838v3.175h-1.4V41.648Zm-2.058-2.79v2.251h-2.15V38.858A1.822,1.822,0,0,1,61.649,37.1a1.824,1.824,0,0,1,1.078,1.756m2.058-2.75v5H63.267V38.858a2.453,2.453,0,0,0-.729-1.811,2.367,2.367,0,0,0-.864-.522c-.021-.006-.019-.008-.019-.008l-.024.008a2.329,2.329,0,0,0-.864.522,2.448,2.448,0,0,0-.731,1.811v2.251H58.511v-5Zm0-.541H58.511V34.283h6.275ZM60.139,28.66a2.785,2.785,0,0,1,.172,1.009l.006,3.968H59.306V29.664a2.8,2.8,0,0,1,.186-1,4.306,4.306,0,0,1,.31-.573,3.8,3.8,0,0,1,.336.57M62.426,29.7l0,3.941H60.876c0-1.1,0-3.943,0-3.944a2.309,2.309,0,0,1,.218-.982,1.745,1.745,0,0,1,.563-.614h0a1.789,1.789,0,0,1,.544.614,2.225,2.225,0,0,1,.224.985m1.071-1.6a3.663,3.663,0,0,1,.309.571,2.819,2.819,0,0,1,.2,1v3.968h-1.02V29.669a2.9,2.9,0,0,1,.2-1.006,3.014,3.014,0,0,1,.317-.568m-3.575-1.972A3.674,3.674,0,0,1,60.5,24.27a3.394,3.394,0,0,1,.887-.86,2,2,0,0,1,.259-.145,2,2,0,0,1,.259.145,3.418,3.418,0,0,1,.887.86,3.67,3.67,0,0,1,.575,1.853Zm3.449.541v.3a1.287,1.287,0,0,1-.056.231,3.989,3.989,0,0,1-.345.613,5.973,5.973,0,0,0-.3.527,3.418,3.418,0,0,0-.392-.509c-.105-.111-.247-.255-.361-.39a.964.964,0,0,1-.264-.474h0a.921.921,0,0,1-.259.474c-.116.135-.256.279-.363.39a3.685,3.685,0,0,0-.4.517,6.162,6.162,0,0,0-.307-.54,4.089,4.089,0,0,1-.344-.613,1.343,1.343,0,0,1-.067-.294v-.228ZM57.858,70.488H49.84V62.137h8.017ZM52.37,56.656v3.182h2.981V56.656h2.507V61.6H49.84V56.656Zm5.488-4.105v3.565H55.351v-.893a1.491,1.491,0,0,0-2.981,0v.893H49.84V52.551Zm0-.945H49.84V48.548h8.017Zm-4-7.594,4,4H49.866Zm-.836-2.957.63-2.7.261-4.513.153,4.511.63,2.7Zm1.7.648v2.254l-.863-.863L53,43.954V41.7ZM49.2,70.488H42.926V62.137H49.2Zm0-8.893H42.926V56.656H49.2Zm0-5.479H42.926V48.548H49.2Zm-1.936-11.28v3.171h-2.4V44.831a1.958,1.958,0,0,1,.579-1.447A1.881,1.881,0,0,1,46.065,43h0a1.835,1.835,0,0,1,.616.385,1.946,1.946,0,0,1,.581,1.447ZM49.2,41.648v6.359H47.806V44.831a2.5,2.5,0,0,0-.75-1.838,2.4,2.4,0,0,0-.874-.532c-.016-.006-.119-.038-.119-.038s-.1.032-.107.037a2.4,2.4,0,0,0-.883.533,2.494,2.494,0,0,0-.748,1.838v3.175h-1.4V41.648Zm-2.06-2.79v2.251h-2.15V38.858A1.826,1.826,0,0,1,46.065,37.1a1.823,1.823,0,0,1,1.076,1.756m2.06-2.75v5h-1.52V38.858a2.441,2.441,0,0,0-.731-1.811,2.335,2.335,0,0,0-.863-.522c-.021-.006-.019-.008-.019-.008l-.024.008a2.354,2.354,0,0,0-.864.522,2.448,2.448,0,0,0-.731,1.811v2.251H42.925v-5Zm0-.541H42.926V34.283H49.2ZM44.553,28.66a2.79,2.79,0,0,1,.173,1.009l0,3.968H43.722V29.664a2.8,2.8,0,0,1,.185-1,4.71,4.71,0,0,1,.31-.573,3.667,3.667,0,0,1,.336.57M46.84,29.7l0,3.941H45.29c0-1.1,0-3.943,0-3.944a2.333,2.333,0,0,1,.218-.982,1.745,1.745,0,0,1,.563-.614h0a1.771,1.771,0,0,1,.544.614,2.225,2.225,0,0,1,.224.985m1.071-1.6a3.789,3.789,0,0,1,.31.571,2.855,2.855,0,0,1,.2,1v3.968H47.4V29.669a2.894,2.894,0,0,1,.2-1.006,3.107,3.107,0,0,1,.317-.568m-3.573-1.972a3.658,3.658,0,0,1,.576-1.853,3.417,3.417,0,0,1,.885-.86,2.111,2.111,0,0,1,.259-.145,2,2,0,0,1,.259.145,3.418,3.418,0,0,1,.887.86,3.674,3.674,0,0,1,.576,1.853Zm3.448.541v.3a1.147,1.147,0,0,1-.054.231,4.288,4.288,0,0,1-.345.613,5.973,5.973,0,0,0-.3.527,3.65,3.65,0,0,0-.392-.509c-.107-.111-.247-.255-.363-.39a.983.983,0,0,1-.264-.474h0a.923.923,0,0,1-.258.474c-.116.135-.258.279-.363.39a3.792,3.792,0,0,0-.4.517c-.127-.256-.242-.433-.306-.54a3.989,3.989,0,0,1-.345-.613,1.383,1.383,0,0,1-.067-.293v-.229ZM84,71.908H23.719c-.177-.288-.345-.583-.513-.877h61.3c-.167.294-.337.589-.513.877m-2.365,3.437a2.546,2.546,0,0,0-4.848,1.09v.823h-.923v-.823a2.548,2.548,0,1,0-5.1,0v.823h-.923v-.823a2.548,2.548,0,1,0-5.1,0v.823h-.922v-.823a2.548,2.548,0,1,0-5.1,0v.823h-.95a3.964,3.964,0,0,0-7.839,0h-.979v-.823a2.548,2.548,0,1,0-5.1,0v.823h-.922v-.823a2.548,2.548,0,1,0-5.1,0v.823h-.923v-.823a2.548,2.548,0,1,0-5.1,0v.823h-.923v-.823a2.548,2.548,0,0,0-4.84-1.111q-.931-1.2-1.757-2.474h59.1c-.557.856-1.148,1.69-1.775,2.494m-2.883,3.263A35.093,35.093,0,0,1,57.829,88.694V84.667h1.487a46.058,46.058,0,0,0,4.75-.229,35.072,35.072,0,0,0-4.75-.312H57.829V78.2h1.778v-1.77a1.841,1.841,0,0,1,3.682,0V78.2h2.335v-.011h0V76.435a1.84,1.84,0,0,1,3.68,0V78.2h2.338v-1.77a1.841,1.841,0,0,1,3.682,0V78.2H77.66v-1.77a1.84,1.84,0,0,1,3.58-.6,35.4,35.4,0,0,1-2.489,2.771M55.965,81.487a2.177,2.177,0,0,1-4.21,0Zm-2.7-1.84a1.205,1.205,0,0,0,2.308-.121,1.693,1.693,0,0,1,1.054.412,1.8,1.8,0,0,1,.513,1.006H50.584a1.808,1.808,0,0,1,.514-1.006,2.374,2.374,0,0,1,2.163-.291m-.853-5.008.713,1.02.729-1.383.729,1.383.713-1.02-.283,1.772H52.691Zm.337,2.313h2.23c.086.205.3.724.43,1.023.091.209.207.433.065.662a.485.485,0,0,1-.544.221c-.008,0-.018,0-.027,0a1.1,1.1,0,0,1-2.077,0c-.01,0-.019,0-.027,0a.485.485,0,0,1-.544-.221c-.142-.229-.025-.454.065-.662.131-.3.344-.818.43-1.023m3.823,11.863q-1.342.1-2.711.1t-2.708-.1l-.665-4.15h.769c-.193-.455-.524-1.251-.653-1.574-.207-.519-.053-.863.293-1a.632.632,0,0,1,.834.5l.336,1.261h.49v.813h0v.162H51.4v.541h1.7l0-.7h2.058l0-.813h.492l.339-1.261a.637.637,0,0,1,.84-.5c.347.134.5.478.294,1l-.245.627-.458,1.109H55.176v.541h1.6l.291-.7h.167Zm-6.677-4.689H48.268v.541h1.624v4.027A35.1,35.1,0,0,1,28.965,78.608q-1.182-1.184-2.249-2.474a1.839,1.839,0,0,1,3.653.3V78.2h2.337v-.011h0V76.435a1.841,1.841,0,0,1,3.682,0V78.2h2.335v-1.77a1.842,1.842,0,0,1,3.683,0V78.2h2.335v-1.77a1.841,1.841,0,0,1,3.682,0V78.2h1.468Zm3.967-66.25A35.839,35.839,0,1,0,89.7,53.715,35.839,35.839,0,0,0,53.858,17.876m.581,59.95h.309v-.541h-.737v1.2h.43ZM27.415,27.28A37.4,37.4,0,1,0,53.858,16.327,37.276,37.276,0,0,0,27.415,27.28m-11.9,26.446A38.345,38.345,0,1,1,53.858,92.07,38.345,38.345,0,0,1,15.514,53.726m182.923,12V62.681h-2.676v3.042h-1.687V58.417h1.687v2.8h2.676v-2.8h1.686v7.306Zm-10.758,0V64.4l2.348-3.928a6.248,6.248,0,0,1,.39-.563c-.193.011-.446.022-1.149.022h-1.514V58.417h4.729V59.79L190,63.773c-.088.142-.172.261-.282.412.142-.022.552-.022,1.418-.022h1.386v1.56Zm-4.5.14c-2.324,0-2.887-1.254-2.887-2.715V58.417h1.687v4.632c0,.855.271,1.4,1.308,1.4.953,0,1.321-.4,1.321-1.493V58.417h1.667v4.438c0,2.056-1.157,3.008-3.1,3.008M173.852,79.37V70.25c0-1.493-.4-2.383-1.749-2.383-1.864,0-3.327,2.123-3.327,4.619V79.37H165.1V58.431h3.672v6.111a13.985,13.985,0,0,1-.259,2.9l.059.029a5.024,5.024,0,0,1,4.675-2.668c3.21,0,4.247,2.066,4.247,4.56V79.37Zm-15.518.258c-3.957,0-6.424-2.064-6.424-6.913,0-4.446,2.324-7.858,7.373-7.858a11.108,11.108,0,0,1,2.926.4l-.374,3.185a7.486,7.486,0,0,0-2.582-.517c-2.324,0-3.5,1.721-3.5,4.417,0,2.437.947,4.1,3.384,4.1a6.425,6.425,0,0,0,2.811-.6l.287,3.128a11.383,11.383,0,0,1-3.9.659M145.557,65.115h3.672V79.37h-3.672Zm1.835-1.835a2.224,2.224,0,1,1,2.294-2.24,2.271,2.271,0,0,1-2.294,2.24m-4.661,5.133c-2.637-.546-3.957,1.176-3.957,5.135V79.37H135.1V65.115h3.472a18.92,18.92,0,0,1-.258,2.868h.057c.688-1.807,2.064-3.384,4.532-3.183Zm-15.056-5.651a1.979,1.979,0,1,1,1.978-1.98,1.983,1.983,0,0,1-1.978,1.98m-5.8,0a1.979,1.979,0,1,1,1.98-1.98,1.983,1.983,0,0,1-1.98,1.98M127.7,79.37a15.416,15.416,0,0,1,.172-2.524l-.029-.029A5.177,5.177,0,0,1,123,79.685c-3.212,0-4.245-2.066-4.245-4.56V65.115H122.4v9.121c0,1.491.4,2.383,1.778,2.383,1.865,0,3.3-2.123,3.3-4.619V65.115h3.672V79.37Zm-24.718,0V76.5l6.969-11.358a20.47,20.47,0,0,1,1.264-1.837c-.689.03-1.608.057-3.529.057h-4.474V60.008h12.506v2.983l-7.373,11.645c-.287.46-.544.89-.888,1.35.487-.057,1.807-.057,4.188-.057h4.188V79.37ZM237.636,49.35c-3.156,0-4.159-1.148-4.159-4.474V37.648h-2.437v-2.84h2.437V30.42l3.67-.976v5.364h3.472v2.84h-3.472V43.9c0,1.837.431,2.353,1.694,2.353a7.012,7.012,0,0,0,1.778-.229v2.954a12.693,12.693,0,0,1-2.983.372m-11.7-16.894a1.979,1.979,0,1,1,1.98-1.979,1.982,1.982,0,0,1-1.98,1.979m-1.031,10.3c-3.871,0-4.734,1.117-4.734,2.265a1.5,1.5,0,0,0,1.694,1.52A3.287,3.287,0,0,0,224.9,43.1Zm-4.761-10.3a1.979,1.979,0,1,1,1.979-1.979,1.984,1.984,0,0,1-1.979,1.979m5.046,16.608a16.045,16.045,0,0,1,.146-2.41l-.03-.029a4.836,4.836,0,0,1-4.562,2.725c-2.58,0-4.072-1.463-4.072-3.758,0-3.413,3.384-5.219,8.232-5.219V39.6c0-1.491-.718-2.265-2.782-2.265A9.374,9.374,0,0,0,217.9,38.45l-.314-3.069a15.591,15.591,0,0,1,5.1-.888c4.59,0,5.88,1.864,5.88,4.961v5.937c0,1.148.029,2.5.088,3.672Zm-14.134.287c-3.156,0-4.161-1.148-4.161-4.474V37.648h-2.437v-2.84h2.437V30.42l3.672-.976v5.364h3.472v2.84h-3.472V43.9c0,1.837.43,2.353,1.694,2.353a7.031,7.031,0,0,0,1.778-.229v2.954a12.714,12.714,0,0,1-2.983.372M198.094,34.808h3.672V49.064h-3.672Zm1.835-1.835a2.225,2.225,0,1,1,2.3-2.238,2.272,2.272,0,0,1-2.3,2.238M188.6,49.35a19.6,19.6,0,0,1-2.984-.258l.089-3.012a12.543,12.543,0,0,0,3.067.43c1.405,0,2.322-.573,2.322-1.52,0-2.524-5.765-1.09-5.765-5.937,0-2.5,2.039-4.56,6.052-4.56a16.217,16.217,0,0,1,2.61.258l-.113,2.9a9.963,9.963,0,0,0-2.641-.372c-1.434,0-2.122.573-2.122,1.463,0,2.324,5.851,1.291,5.851,5.908,0,2.811-2.466,4.7-6.367,4.7m-5.02-11.244c-2.639-.546-3.957,1.176-3.957,5.135v5.822h-3.672V34.808h3.47a18.922,18.922,0,0,1-.258,2.868h.057c.688-1.808,2.064-3.384,4.532-3.183Zm-16.807-.917a2.85,2.85,0,0,0-2.782,2.84h5.249c.057-1.78-.918-2.84-2.467-2.84m5.994,5.335h-8.834c-.029,2.666,1.289,3.957,3.928,3.957a10.211,10.211,0,0,0,4.161-.89l.342,2.84a14.131,14.131,0,0,1-5.1.918c-4.532,0-7.054-2.265-7.054-7.285,0-4.36,2.408-7.572,6.682-7.572,4.158,0,6,2.84,6,6.367a11.935,11.935,0,0,1-.116,1.665m-18.442,6.539H150.6l-5.278-14.255h4.016l2.267,6.424c.342.976.688,2.123.945,3.155h.057a30.741,30.741,0,0,1,.86-3.04l2.3-6.539h3.9ZM139.584,34.808h3.672V49.064h-3.672Zm1.835-1.835a2.225,2.225,0,1,1,2.294-2.238,2.271,2.271,0,0,1-2.294,2.238m-9.464,16.091V39.942c0-1.491-.4-2.381-1.751-2.381-1.864,0-3.327,2.123-3.327,4.619v6.884h-3.67V34.808h3.47a15.744,15.744,0,0,1-.2,2.524l.029.027a5.2,5.2,0,0,1,4.848-2.867c3.21,0,4.243,2.064,4.243,4.56v10.01Zm-20.767.315c-6.109,0-7.486-3.327-7.486-7.027V29.7h3.729v12.42c0,2.439.8,4.159,4.014,4.159,2.87,0,4.075-1.2,4.075-4.5V29.7h3.7V41.548c0,5.307-2.926,7.831-8.032,7.831M61.649,20.806a.672.672,0,1,0,.672.672.672.672,0,0,0-.672-.672m.527,45.065V64.279a.538.538,0,0,0-1.076,0v1.592Zm-.2-6.033V58.046a.333.333,0,1,0-.665,0v1.792Zm0-5.4V52.644a.333.333,0,0,0-.665,0v1.794Zm.29-14.31V38.746a1.051,1.051,0,0,0-.619-1.012,1.048,1.048,0,0,0-.619,1.012v1.382Zm0,6.878V44.865a1.051,1.051,0,0,0-.619-1.011,1.046,1.046,0,0,0-.619,1.011v2.141Zm-16.207-26.2a.672.672,0,1,0,.672.672.672.672,0,0,0-.672-.672m.528,45.065V64.279a.538.538,0,0,0-1.076,0v1.592Zm-.2-6.033V58.046a.333.333,0,1,0-.665,0v1.792Zm0-5.4V52.644a.333.333,0,0,0-.665,0v1.794Zm.29-14.31V38.746a1.047,1.047,0,0,0-.619-1.012,1.051,1.051,0,0,0-.619,1.012v1.382Zm0,6.878V44.865a1.046,1.046,0,0,0-.619-1.011,1.048,1.048,0,0,0-.619,1.011v2.141Zm.407,36.724a.672.672,0,1,0,.673.672.67.67,0,0,0-.673-.672M53.522,46.98H54.2V45.525h-.676Zm.337-18.746a.672.672,0,1,0,.673.672.672.672,0,0,0-.673-.672m2.373,38.039V64.381a.641.641,0,0,0-1.281,0v1.893Zm-3.465,0V64.381a.641.641,0,0,0-1.281,0v1.893Zm20.04,15.6a1.134,1.134,0,0,1-.167-.011c-.089-.016-.094-.041-.11-.127-.016-.134-.016-.392-.016-.7v-.568c0-.49,0-.581.008-.681s.024-.132.1-.15a.406.406,0,0,1,.094-.011c.033,0,.08-.019.08-.065s-.054-.053-.1-.054c-.129,0-.345.008-.428.008s-.322-.008-.447-.008c-.051,0-.1,0-.107.054s.046.065.081.065a.367.367,0,0,1,.113.014c.064.024.084.04.094.146s0,.191,0,.681v.568c0,.309,0,.567-.016.7-.014.1-.024.119-.076.132a.533.533,0,0,1-.113.01.072.072,0,0,0-.08.062c0,.049.049.06.092.06.132,0,.361-.01.435-.01.091,0,.318.01.54.01.038,0,.088-.01.091-.06a.072.072,0,0,0-.08-.062m-2.023,0a1.1,1.1,0,0,1-.166-.011c-.089-.016-.1-.041-.111-.127-.016-.134-.016-.392-.016-.7v-.568c0-.49,0-.581.008-.681s.024-.132.1-.15a.416.416,0,0,1,.094-.011c.033,0,.08-.019.08-.065s-.054-.053-.094-.054c-.131,0-.347.008-.43.008s-.322-.008-.447-.008c-.049,0-.1,0-.105.054a.072.072,0,0,0,.08.065.367.367,0,0,1,.113.014c.064.024.083.04.094.146s0,.191,0,.681v.568c0,.309,0,.567-.016.7-.014.1-.022.119-.076.132a.533.533,0,0,1-.113.01.072.072,0,0,0-.08.062c0,.049.049.06.091.06.134,0,.363-.01.436-.01.091,0,.318.01.538.01.041,0,.088-.01.092-.06a.072.072,0,0,0-.08-.062m-2.023,0a1.1,1.1,0,0,1-.166-.011c-.089-.016-.1-.041-.111-.127-.014-.134-.014-.392-.014-.7v-.568c0-.49,0-.581.006-.681s.024-.132.1-.15a.416.416,0,0,1,.094-.011c.033,0,.081-.019.081-.065s-.056-.053-.1-.054c-.129,0-.345.008-.427.008s-.322-.008-.449-.008c-.049,0-.1,0-.107.054s.046.065.081.065a.367.367,0,0,1,.113.014c.064.024.084.04.1.146s0,.191,0,.681v.568c0,.309,0,.567-.016.7-.013.1-.022.119-.078.132a.5.5,0,0,1-.11.01c-.051,0-.081.032-.081.062,0,.049.049.06.092.06.134,0,.361-.01.435-.01.091,0,.318.01.54.01.04,0,.088-.01.091-.06a.072.072,0,0,0-.08-.062m-1.743,0a.441.441,0,0,1-.119-.016.331.331,0,0,1-.17-.121c-.078-.094-.6-.925-.731-1.119l.543-.74c.1-.14.164-.221.223-.236a.5.5,0,0,1,.116-.018.072.072,0,0,0,.08-.062c0-.049-.051-.057-.088-.057-.126,0-.264.008-.326.008s-.22-.008-.349-.008c-.048,0-.1.008-.1.057a.065.065,0,0,0,.068.062.341.341,0,0,1,.1.01c.029.006.04.024.038.029a.205.205,0,0,1-.035.1c-.051.084-.31.466-.425.637-.127-.209-.256-.422-.395-.665a.3.3,0,0,1-.032-.081s0-.014.025-.021a.343.343,0,0,1,.075-.01.07.07,0,0,0,.078-.062c0-.049-.053-.057-.1-.057-.124,0-.331.008-.374.008-.159,0-.428-.008-.508-.008-.041,0-.089,0-.1.054a.064.064,0,0,0,.06.065.492.492,0,0,1,.134.022.454.454,0,0,1,.253.223l.578.9-.641.866c-.115.156-.161.2-.25.223a.548.548,0,0,1-.115.014.07.07,0,0,0-.072.065c0,.04.038.057.075.057H64.6c.056,0,.218-.01.282-.01.081,0,.3.01.322.01h.06c.043,0,.092,0,.1-.057a.072.072,0,0,0-.068-.065c-.025,0-.051,0-.072,0s-.038-.011-.038-.025v0a.225.225,0,0,1,.045-.113L65.692,81c.146.24.32.53.5.828a.036.036,0,0,1,.008.022,0,0,0,0,1,0,0,.076.076,0,0,0-.065.068c.011.06.06.056.143.062.274.006.54.006.619.006H67c.04,0,.088-.01.092-.06a.068.068,0,0,0-.07-.062m-2.828,0a.451.451,0,0,1-.121-.016.315.315,0,0,1-.169-.121c-.078-.094-.6-.925-.732-1.119l.543-.74c.1-.14.164-.221.223-.236a.5.5,0,0,1,.116-.018c.04,0,.078-.021.078-.062s-.051-.057-.086-.057c-.126,0-.263.008-.326.008s-.22-.008-.349-.008c-.046,0-.1.008-.1.057a.067.067,0,0,0,.068.062.352.352,0,0,1,.1.01c.03.006.04.024.038.029a.224.224,0,0,1-.035.1c-.051.084-.31.466-.425.637-.126-.21-.256-.422-.395-.665a.205.205,0,0,1-.03-.081s0-.013.024-.021a.342.342,0,0,1,.073-.01c.035,0,.08-.016.08-.062s-.051-.057-.1-.057c-.124,0-.331.008-.374.008-.159,0-.427-.008-.508-.008-.041,0-.088,0-.1.054a.064.064,0,0,0,.06.065.483.483,0,0,1,.134.022.461.461,0,0,1,.255.223l.576.9-.641.866c-.115.156-.161.2-.25.223a.548.548,0,0,1-.115.014.069.069,0,0,0-.072.065c0,.04.038.057.075.057h.057c.056,0,.218-.01.28-.01.083,0,.3.01.323.01h.06c.043,0,.092,0,.1-.057a.071.071,0,0,0-.068-.065c-.024,0-.051,0-.072,0s-.038-.011-.038-.025a.016.016,0,0,0,0,0,.248.248,0,0,1,.046-.113L62.862,81c.146.24.32.53.5.828a.036.036,0,0,1,.008.022,0,0,0,0,1,0,0,.076.076,0,0,0-.065.068c.011.06.06.057.145.062.272.006.538.006.618.006h.1c.04,0,.088-.01.091-.06a.064.064,0,0,0-.067-.062m-2.83,0a.444.444,0,0,1-.121-.016.321.321,0,0,1-.169-.121c-.078-.094-.6-.925-.731-1.119l.541-.74c.1-.14.164-.221.224-.236a.49.49,0,0,1,.115-.018.071.071,0,0,0,.08-.062c0-.049-.051-.057-.088-.057-.127,0-.264.008-.326.008s-.22-.008-.349-.008c-.046,0-.1.008-.1.057a.066.066,0,0,0,.068.062.341.341,0,0,1,.1.01c.029.006.038.024.038.029a.237.237,0,0,1-.033.1c-.053.084-.312.466-.427.637-.126-.209-.256-.422-.395-.665a.3.3,0,0,1-.032-.081s0-.014.025-.021a.354.354,0,0,1,.073-.01c.035,0,.08-.016.081-.062s-.053-.057-.1-.057c-.127,0-.331.008-.376.008-.159,0-.427-.008-.508-.008-.04,0-.088,0-.1.054a.063.063,0,0,0,.06.065.492.492,0,0,1,.134.022.461.461,0,0,1,.255.223l.576.9-.64.866c-.116.156-.162.2-.251.223a.537.537,0,0,1-.115.014.07.07,0,0,0-.072.065c0,.04.038.057.075.057h.059c.054,0,.216-.01.279-.01.083,0,.3.01.323.01h.06c.043,0,.092,0,.1-.057a.071.071,0,0,0-.068-.065c-.024,0-.051,0-.073,0s-.037-.013-.037-.025a.008.008,0,0,1,0,0,.248.248,0,0,1,.046-.113L60.032,81c.146.24.32.53.5.828a.042.042,0,0,1,.006.022s0,0,0,0a.078.078,0,0,0-.067.068c.011.06.062.057.143.062.274.006.54.006.621.006h.1c.038,0,.086-.01.091-.06a.067.067,0,0,0-.068-.062m-12.887-.541c-.045,0-.067.043-.068.088a.486.486,0,0,1-.108.2c-.124.138-.275.162-.571.162a1.05,1.05,0,0,1-1.011-1.1,1.012,1.012,0,0,1,.3-.817.864.864,0,0,1,.611-.177.924.924,0,0,1,.626.181.431.431,0,0,1,.121.282c0,.04.008.092.06.1s.07-.06.073-.107c0-.065,0-.244.011-.347s.014-.15.014-.181a.067.067,0,0,0-.073-.064c-.1-.011-.205-.035-.333-.054a3.444,3.444,0,0,0-.489-.033,1.547,1.547,0,0,0-1.076.347,1.233,1.233,0,0,0-.4.9,1.219,1.219,0,0,0,.428.971,1.726,1.726,0,0,0,1.16.357,1.954,1.954,0,0,0,.613-.075.14.14,0,0,0,.1-.111,2.648,2.648,0,0,0,.073-.436.076.076,0,0,0-.064-.084m-2.671,0c-.046,0-.065.043-.07.088a.464.464,0,0,1-.107.2c-.124.138-.274.162-.57.162a1.05,1.05,0,0,1-1.012-1.1,1.017,1.017,0,0,1,.3-.817.869.869,0,0,1,.611-.177.924.924,0,0,1,.626.181.439.439,0,0,1,.121.282c0,.04.008.092.06.1s.068-.06.073-.107c0-.065,0-.244.011-.347s.014-.15.016-.181a.07.07,0,0,0-.075-.064c-.1-.011-.205-.035-.331-.054a3.486,3.486,0,0,0-.49-.033,1.537,1.537,0,0,0-1.074.347,1.227,1.227,0,0,0-.4.9,1.208,1.208,0,0,0,.427.971,1.733,1.733,0,0,0,1.162.357,1.967,1.967,0,0,0,.613-.075.136.136,0,0,0,.1-.111,2.831,2.831,0,0,0,.073-.436.076.076,0,0,0-.064-.084m-2.671,0c-.045,0-.065.043-.068.088a.486.486,0,0,1-.108.2c-.124.138-.275.162-.57.162a1.05,1.05,0,0,1-1.012-1.1,1.017,1.017,0,0,1,.3-.817.867.867,0,0,1,.611-.177.924.924,0,0,1,.626.181.431.431,0,0,1,.121.282c0,.04.006.092.062.1s.068-.06.072-.107c0-.065,0-.244.011-.347s.016-.15.016-.181a.068.068,0,0,0-.075-.064c-.1-.011-.205-.035-.331-.054a3.486,3.486,0,0,0-.49-.033,1.539,1.539,0,0,0-1.074.347,1.272,1.272,0,0,0,.025,1.875,1.737,1.737,0,0,0,1.164.357,1.967,1.967,0,0,0,.613-.075.142.142,0,0,0,.1-.111,2.8,2.8,0,0,0,.072-.436.076.076,0,0,0-.064-.084m-3.156-.522a.968.968,0,0,1-.274.78,1.028,1.028,0,0,1-.71.212c-.259,0-.384-.07-.415-.116a.623.623,0,0,1-.032-.213c0-.064-.01-.31-.01-.651v-.406c0-.253,0-.519,0-.627,0-.035,0-.029.024-.041a.789.789,0,0,1,.2-.019,1.309,1.309,0,0,1,.914.3,1.013,1.013,0,0,1,.3.783m.209-.93a1.839,1.839,0,0,0-1.361-.374c-.2,0-.441.006-.541.006s-.307-.006-.482-.006c-.046,0-.1,0-.1.056s.048.062.084.062a.616.616,0,0,1,.126.01c.1.035.113.045.124.151s0,.191,0,.681v.567c0,.3,0,.551-.016.684-.013.094-.027.137-.078.146a.5.5,0,0,1-.111.01.073.073,0,0,0-.08.062c0,.048.049.06.092.06.068,0,.151,0,.231-.006s.153,0,.189,0c.081,0,.2.006.334.018s.279.019.4.019a1.575,1.575,0,0,0,1.136-.387,1.275,1.275,0,0,0,.372-.917,1.158,1.158,0,0,0-.323-.839m-2.72,1.993a.647.647,0,0,1-.181-.029c-.084-.024-.113-.092-.143-.3l-.3-1.99c-.014-.076-.054-.123-.1-.126s-.083.038-.111.1l-.871,1.77-.871-1.748c-.043-.088-.078-.118-.126-.118s-.083.046-.091.105l-.329,2.106c-.014.107-.051.221-.115.223a.655.655,0,0,1-.1.006c-.04,0-.076.019-.08.059s.054.064.088.064c.108,0,.267-.01.329-.01s.212.01.352.01c.048,0,.105,0,.107-.064,0-.043-.041-.057-.08-.059a.548.548,0,0,1-.111-.014c-.056-.011-.081-.024-.081-.067a1.2,1.2,0,0,1,.011-.148l.151-1.187c.111.228.279.571.3.626.04.1.3.584.384.734.056.1.086.17.158.177s.081-.049.156-.2l.688-1.378.175,1.324a.673.673,0,0,1,0,.068.117.117,0,0,1,0,.041c-.024.008-.053.021-.054.059s.046.062.124.065c.134.008.606.021.691.021.049,0,.107,0,.115-.064s-.046-.059-.081-.059M79.98,63.817c.076-.072.111-.075.232-.024.3.129.618.293.7.336s.134.084.115.127-.073.033-.116.014a1.29,1.29,0,0,0-.3-.07.82.82,0,0,0-.888.543.721.721,0,0,0,.306,1,1.135,1.135,0,0,0,1.106-.158l.3-.166a1.763,1.763,0,0,1,1.644-.248,1.205,1.205,0,0,1,.487,1.706,2.822,2.822,0,0,1-.407.688c-.032.045-.06.065-.1.048-.07-.03-.22-.121-.645-.306-.121-.051-.158-.088-.138-.131s.056-.041.123-.011a.73.73,0,0,0,.422.014.762.762,0,0,0,.525-.481.626.626,0,0,0-.282-.893c-.251-.11-.5-.067-1.038.239l-.18.1a1.825,1.825,0,0,1-1.781.294,1.2,1.2,0,0,1-.727-.923,1.718,1.718,0,0,1,.151-.968,2.058,2.058,0,0,1,.485-.734m3.507-2.1c.871.247,1.031.291,1.218.331s.31.014.376-.1a.815.815,0,0,0,.081-.2c.016-.057.037-.089.083-.076s.033.059.006.151c-.06.216-.18.573-.228.74-.04.142-.118.484-.18.7-.021.075-.045.118-.08.108s-.048-.051-.032-.108a.9.9,0,0,0,.032-.177c.016-.162-.07-.236-.267-.3-.178-.064-.339-.108-1.21-.355l-1.008-.285c-.556-.158-1.009-.285-1.261-.331-.159-.027-.274-.016-.345.148a2.354,2.354,0,0,0-.105.287c-.019.064-.045.088-.072.08s-.046-.062-.027-.126c.107-.377.226-.734.269-.89.038-.131.123-.5.188-.726.021-.075.048-.108.089-.1s.04.035.021.105A.907.907,0,0,0,81,60.8c-.01.121.078.183.239.247.232.1.686.224,1.242.38ZM81.7,56.664c.056-.088.088-.1.216-.083.325.048.675.121.769.142s.15.045.143.091-.062.051-.108.045a1.379,1.379,0,0,0-.309.01.82.82,0,0,0-.716.758.724.724,0,0,0,.559.887c.288.041.571-.008,1.025-.442l.251-.24a1.766,1.766,0,0,1,1.522-.672,1.21,1.21,0,0,1,.918,1.522,2.884,2.884,0,0,1-.213.769c-.019.053-.041.078-.083.072-.076-.011-.244-.059-.7-.124-.129-.019-.174-.043-.167-.089s.043-.056.115-.045a.745.745,0,0,0,.411-.1.755.755,0,0,0,.38-.6.626.626,0,0,0-.506-.788c-.271-.04-.5.067-.938.5l-.148.148c-.638.633-1.081.829-1.641.748a1.194,1.194,0,0,1-.945-.7,1.705,1.705,0,0,1-.107-.971,2.1,2.1,0,0,1,.275-.839m.8-5.491c-.463.029-.614.111-.653.232a.953.953,0,0,0-.03.31c0,.065-.008.1-.045.1s-.062-.051-.064-.134c-.014-.387,0-.626-.01-.739,0-.054-.029-.333-.04-.641,0-.078,0-.132.054-.134.037,0,.051.035.053.094a.976.976,0,0,0,.038.266c.054.154.226.172.745.159l3.524-.07c.119,0,.2.01.2.068s-.072.123-.175.228c-.075.073-1.014,1.012-1.845,1.912-.39.419-1.219,1.253-1.31,1.356v.03l2.669-.153c.363-.019.474-.078.528-.223a.978.978,0,0,0,.025-.315c0-.072.014-.1.049-.1s.056.062.059.151c.011.309,0,.6.008.721,0,.065.029.291.038.583,0,.078,0,.137-.049.138s-.054-.033-.057-.105a.682.682,0,0,0-.022-.178c-.056-.164-.181-.207-.516-.2l-3.755.067c-.131,0-.186-.016-.188-.07s.06-.138.124-.205c.344-.388,1.1-1.178,1.687-1.818.619-.672,1.339-1.358,1.448-1.469v-.019Zm1.1-5.081c.883-.2,1.046-.236,1.229-.288s.277-.124.275-.325a1.406,1.406,0,0,0-.033-.231c-.016-.064-.011-.1.029-.11s.062.029.081.116c.035.158.068.326.1.471s.053.288.07.369c.043.186.3,1.342.333,1.45a2.26,2.26,0,0,0,.091.242.518.518,0,0,1,.045.089c.006.029-.016.04-.045.046a3.85,3.85,0,0,0-.388.038c-.059.006-.317.053-.39.057-.03,0-.067,0-.076-.045s.018-.059.068-.07a.612.612,0,0,0,.2-.081c.1-.065.153-.138.123-.438-.011-.1-.137-.713-.162-.829-.006-.029-.027-.037-.067-.027l-1.471.329c-.041.01-.062.021-.054.054.029.129.178.8.22.928s.08.22.15.259.091.046.1.075,0,.045-.038.053-.132,0-.433.048c-.119.021-.355.056-.4.065s-.11.025-.121-.029a.047.047,0,0,1,.04-.064,1.31,1.31,0,0,0,.205-.07c.108-.056.178-.156.153-.376-.013-.113-.137-.691-.169-.829-.006-.029-.03-.03-.065-.022l-.458.1c-.2.045-.734.159-.9.2-.4.1-.465.213-.331.807a1.529,1.529,0,0,0,.191.53.508.508,0,0,0,.49.166c.065,0,.092,0,.1.043s-.037.057-.1.072a4.818,4.818,0,0,1-.662.068c-.159-.006-.17-.059-.221-.28-.1-.435-.158-.758-.209-1.009s-.078-.433-.118-.608c-.014-.064-.043-.191-.08-.329s-.075-.282-.1-.4c-.018-.075-.01-.119.032-.129s.053.013.068.083a.933.933,0,0,0,.07.2c.048.11.183.111.357.1.25-.027.71-.131,1.243-.25Zm-3.917-4.46A2.355,2.355,0,0,1,82.794,40.3a2.587,2.587,0,0,1,1.3,1.5,5.825,5.825,0,0,1,.275.82c.059.221.083.417.134.589.019.062,0,.1-.032.11s-.116.029-.314.1-.485.2-.6.229c-.086.029-.135.037-.154-.013s.021-.073.1-.105a.854.854,0,0,0,.417-.425,1.769,1.769,0,0,0-.121-1.257,1.566,1.566,0,0,0-.769-.893,2.226,2.226,0,0,0-2.875,2.626c.2.489.38.764.724.879a.956.956,0,0,0,.439.037c.1-.019.121-.018.14.027s-.018.065-.062.083a5.849,5.849,0,0,1-.782.183A.211.211,0,0,1,80.4,44.7a3.424,3.424,0,0,1-.536-.938,2.964,2.964,0,0,1-.18-2.134m.441-3.788c.78-.458.922-.544,1.081-.651s.226-.215.185-.344a.89.89,0,0,0-.088-.2c-.032-.051-.038-.089,0-.113s.065.018.115.1c.115.194.288.527.377.675.075.129.269.422.384.616.04.067.053.115.022.132s-.07,0-.1-.051a.893.893,0,0,0-.105-.145c-.107-.124-.22-.115-.4-.018s-.314.17-1.094.63l-.9.532c-.5.293-.9.532-1.111.683-.129.1-.2.186-.131.353a2.724,2.724,0,0,0,.135.274c.032.056.032.091.006.105s-.076-.011-.108-.067c-.2-.337-.376-.67-.457-.809-.07-.118-.275-.433-.4-.638-.04-.065-.045-.111-.01-.132s.054,0,.089.057a.935.935,0,0,0,.131.173c.081.091.186.068.344,0,.231-.1.635-.341,1.133-.634Zm-3.08-3.507c-.051.041-.062.065-.049.11a1.537,1.537,0,0,0,.236.388c.151.186.218.232.345.266a1.042,1.042,0,0,0,.915-.285.953.953,0,0,0,.277-1.393,1.265,1.265,0,0,0-.216-.231c-.035-.025-.06-.019-.1.01Zm-.075-.842c.705-.567.834-.672.976-.8s.194-.232.1-.412a1.328,1.328,0,0,0-.131-.191c-.041-.051-.056-.086-.022-.113s.068,0,.123.068c.2.245.42.549.5.646.126.158.423.5.538.643a1.907,1.907,0,0,1,.489,1.014,1.034,1.034,0,0,1-.382.826,1.665,1.665,0,0,1-1.531.224c-.186.831-.342,1.483-.409,1.988a1.167,1.167,0,0,0,.1.772.882.882,0,0,0,.089.142c.03.038.032.067.008.086s-.072,0-.118-.051l-.353-.441a1.2,1.2,0,0,1-.312-.567,2.869,2.869,0,0,1,.17-1.184c.107-.39.248-.858.271-.974a.127.127,0,0,0-.035-.11l-.315-.411a.044.044,0,0,0-.068-.008L76.6,34.7c-.431.345-.8.641-.974.821-.123.121-.2.232-.108.385a2.579,2.579,0,0,0,.164.244c.03.037.03.067.008.084s-.073,0-.123-.056c-.215-.269-.478-.622-.533-.692-.072-.088-.32-.369-.47-.554-.049-.06-.06-.1-.029-.131s.053-.011.1.045a1.053,1.053,0,0,0,.153.153c.092.076.215.018.363-.072.213-.134.581-.428,1.006-.772Zm-4.513-4.25c.589-.686.7-.813.813-.966s.148-.264.027-.423a1.149,1.149,0,0,0-.166-.164c-.049-.043-.068-.076-.041-.107s.067-.014.134.045c.24.205.514.463.649.579.107.092.4.325.567.463.067.059.092.094.064.126s-.062.018-.107-.021a.91.91,0,0,0-.143-.1c-.142-.081-.244-.035-.387.115s-.242.264-.832.95l-.543.632c-.562.656-.667,1.044-.6,1.413a1.116,1.116,0,0,0,.406.67,1.171,1.171,0,0,0,.834.291c.462-.035.823-.431,1.222-.9l.485-.563c.589-.688.7-.813.813-.965s.148-.266.025-.425a1.332,1.332,0,0,0-.15-.154c-.051-.041-.07-.075-.043-.105s.067-.014.129.04c.231.2.5.455.509.46.054.046.35.277.527.428.062.054.086.091.059.123s-.062.018-.116-.03a1,1,0,0,0-.142-.1c-.142-.081-.245-.037-.388.115s-.242.263-.831.95l-.415.482a2.254,2.254,0,0,1-1.6.992A1.776,1.776,0,0,1,72,32.62a1.91,1.91,0,0,1-.735-1.173,1.954,1.954,0,0,1,.624-1.542ZM69.772,25.86,69,25.43c-.3-.164-.442-.21-.586-.142a.668.668,0,0,0-.193.127c-.035.035-.062.046-.094.029s-.03-.053,0-.11c.048-.081.42-.492.454-.527.056-.057.088-.08.119-.06s.062.105.185.191c.14.1.329.226.5.326l2.034,1.194a3.022,3.022,0,0,0,.369.183,1.6,1.6,0,0,1,.154.054c.035.022.022.056-.022.132-.064.108-.287.454-.366.587-.035.049-.064.073-.094.056s-.037-.057,0-.137l.029-.059c.067-.14.013-.365-.438-.643l-.638-.4-1.237,2.106c-.277.473-.516.879-.619,1.116-.068.151-.105.283.038.395a2.638,2.638,0,0,0,.248.173c.057.033.073.064.059.089s-.072.027-.127-.006c-.339-.2-.654-.4-.8-.487-.118-.07-.45-.245-.656-.365-.067-.04-.094-.076-.073-.113s.045-.029.107.008a.857.857,0,0,0,.2.088c.115.04.212-.054.314-.194.153-.2.39-.606.669-1.079ZM38.683,30.185c-.1.013-.134,0-.2-.116-.166-.282-.328-.6-.371-.686s-.059-.146-.018-.17.078.016.1.057a1.337,1.337,0,0,0,.2.234.822.822,0,0,0,1.039.083.722.722,0,0,0,.341-.99c-.15-.251-.366-.441-.988-.522l-.344-.045a1.768,1.768,0,0,1-1.477-.764,1.209,1.209,0,0,1,.61-1.67,2.794,2.794,0,0,1,.732-.315c.053-.018.088-.018.108.018.04.067.107.228.344.627.067.113.075.162.033.188s-.068,0-.105-.062a.721.721,0,0,0-.333-.259.755.755,0,0,0-.707.08.626.626,0,0,0-.3.888c.14.236.365.345.979.417l.209.022c.895.1,1.324.322,1.612.807a1.2,1.2,0,0,1,.048,1.176,1.728,1.728,0,0,1-.689.692,2.061,2.061,0,0,1-.828.31m-3.091.038c.022-.019.016-.035,0-.046l-1.335-.815c-.019-.016-.043-.035-.057-.024s0,.041.006.064l.484,1.487c.011.022.027.033.046.018Zm-.764.99c-.024.019-.025.037-.013.072l.28.864a1.149,1.149,0,0,0,.156.341c.067.084.156.11.3,0l.07-.056c.056-.045.078-.046.1-.018s.01.068-.043.108c-.148.119-.36.264-.5.38-.053.041-.3.259-.54.452-.059.048-.1.06-.126.024s-.01-.053.027-.081.1-.091.137-.124c.193-.2.154-.428.062-.735l-1.164-3.854c-.051-.18-.065-.253-.019-.29s.1-.014.236.056c.317.167,2.575,1.471,3.437,1.942.511.277.7.236.815.18a1.173,1.173,0,0,0,.21-.138c.037-.029.064-.043.089-.01s0,.08-.177.216-.506.4-.887.692c-.088.062-.143.107-.169.075s-.011-.053.032-.094a.1.1,0,0,0-.043-.142l-1.16-.689a.055.055,0,0,0-.072,0Zm-4.52.731-.592.661c-.228.259-.3.384-.271.54a.71.71,0,0,0,.083.216c.025.041.032.07.006.1s-.059.019-.105-.025c-.07-.065-.387-.52-.412-.562-.045-.065-.057-.1-.033-.129s.116-.037.228-.137c.131-.113.3-.271.43-.414l1.619-1.713a2.712,2.712,0,0,0,.261-.318,1.112,1.112,0,0,1,.089-.137c.027-.03.057-.011.123.051.092.086.377.38.49.487.04.045.057.078.032.1s-.062.024-.131-.033l-.053-.04c-.119-.1-.352-.1-.724.28l-.528.533,1.775,1.676c.4.376.74.7.947.853.132.1.251.166.392.051a2.073,2.073,0,0,0,.226-.2c.046-.048.078-.057.1-.037s.011.076-.035.123c-.269.287-.54.546-.654.669-.094.1-.339.384-.5.557-.053.056-.1.075-.126.045s-.019-.049.03-.1a1.018,1.018,0,0,0,.131-.172c.064-.1-.006-.22-.119-.352-.162-.193-.5-.516-.9-.891Zm-1.466,4.01c-.732-.535-.866-.632-1.027-.735s-.288-.121-.39-.033a.866.866,0,0,0-.145.159c-.035.049-.065.07-.105.043s-.01-.067.046-.145c.134-.181.369-.474.471-.614.088-.119.28-.414.414-.6.045-.062.083-.094.111-.073s.027.064-.008.113a.919.919,0,0,0-.091.154c-.07.146-.018.245.145.377.146.123.282.221,1.012.754l.847.618c.466.341.845.618,1.068.75.138.08.25.108.374-.021a2.181,2.181,0,0,0,.2-.232c.038-.053.07-.065.1-.048s.019.073-.019.126c-.231.317-.468.61-.562.74-.081.11-.287.425-.428.616-.046.064-.084.086-.118.062s-.025-.048.018-.105a1,1,0,0,0,.107-.188c.051-.11-.01-.2-.138-.315-.185-.17-.563-.449-1.031-.789Zm.135,4.917c-.083.062-.118.064-.232,0-.285-.162-.583-.36-.662-.411s-.124-.1-.1-.138.076-.025.118,0a1.18,1.18,0,0,0,.29.1.817.817,0,0,0,.944-.442.725.725,0,0,0-.2-1.03,1.143,1.143,0,0,0-1.117.038l-.322.132a1.77,1.77,0,0,1-1.662.07,1.209,1.209,0,0,1-.3-1.752,2.816,2.816,0,0,1,.479-.638c.037-.04.067-.057.1-.038.067.038.205.145.608.374.115.065.148.1.124.145s-.06.035-.123,0a.716.716,0,0,0-.419-.06.758.758,0,0,0-.575.42.626.626,0,0,0,.185.918c.237.135.487.121,1.057-.124l.191-.083a1.838,1.838,0,0,1,1.8-.1,1.2,1.2,0,0,1,.624,1,1.728,1.728,0,0,1-.256.944,2.063,2.063,0,0,1-.563.68m-3.5,2.477c.06.024.088.021.119-.013a1.5,1.5,0,0,0,.218-.4.6.6,0,0,0,.059-.431,1.051,1.051,0,0,0-.707-.649.952.952,0,0,0-1.345.457,1.342,1.342,0,0,0-.091.3c0,.045.013.064.057.081Zm-.692.485c-.844-.326-1-.387-1.181-.444s-.3-.053-.409.116a1.191,1.191,0,0,0-.1.21c-.024.06-.048.091-.086.075s-.035-.059,0-.142c.113-.294.266-.637.31-.754.073-.188.22-.618.287-.789a1.912,1.912,0,0,1,.634-.93,1.03,1.03,0,0,1,.907-.083,1.665,1.665,0,0,1,.96,1.214c.813-.255,1.456-.446,1.926-.64a1.193,1.193,0,0,0,.619-.478.89.89,0,0,0,.076-.15c.018-.043.043-.059.07-.048.045.016.041.059.016.126l-.205.528a1.194,1.194,0,0,1-.334.552,2.86,2.86,0,0,1-1.111.446c-.392.1-.867.215-.979.253a.127.127,0,0,0-.078.086l-.2.479a.042.042,0,0,0,.027.062l.078.029c.517.2.955.369,1.2.433.169.045.3.059.39-.1a2.794,2.794,0,0,0,.127-.264c.018-.045.043-.06.07-.049s.04.06.013.132c-.124.322-.3.727-.333.81-.04.105-.159.462-.245.684-.029.072-.059.105-.1.089s-.035-.04-.01-.107a1.107,1.107,0,0,0,.056-.207c.019-.121-.091-.2-.245-.28-.221-.118-.661-.288-1.172-.485Zm-1.1,4.285c-.885-.189-1.047-.224-1.237-.253s-.3,0-.385.178a1.184,1.184,0,0,0-.067.223c-.014.065-.033.1-.073.089s-.043-.053-.025-.14c.033-.158.076-.325.108-.47s.072-.283.089-.365c.04-.186.29-1.345.307-1.458a2.225,2.225,0,0,0,.019-.256.516.516,0,0,1,0-.1c.006-.029.03-.03.06-.024s.1.053.368.127c.057.019.31.086.377.111.029.013.06.032.053.073s-.04.046-.094.035a.6.6,0,0,0-.216-.011c-.113.019-.2.062-.293.345-.033.1-.177.705-.2.821-.006.03.008.045.049.054l1.472.317c.041.008.065.008.073-.027.027-.129.172-.8.188-.934s.021-.234-.027-.3-.062-.081-.056-.11.021-.038.056-.032.123.053.414.138c.116.03.345.1.387.107s.11.024.1.076a.047.047,0,0,1-.064.041,1.562,1.562,0,0,0-.215-.021c-.123,0-.228.065-.3.277-.035.107-.164.683-.194.823-.006.029.016.04.051.046l.46.1c.2.043.732.164.9.194.4.075.513,0,.64-.592a1.482,1.482,0,0,0,.048-.563c-.037-.166-.145-.263-.374-.355-.062-.024-.083-.041-.075-.081s.057-.037.116-.025a4.966,4.966,0,0,1,.63.215c.142.073.131.126.083.347-.094.436-.173.754-.234,1s-.11.428-.146.6c-.014.064-.041.191-.065.333s-.051.287-.076.4c-.016.076-.041.111-.083.1s-.041-.033-.027-.1a.89.89,0,0,0,.022-.215c0-.121-.119-.177-.283-.237-.239-.081-.7-.18-1.235-.3Zm-1.684,5.269c-.334.116-.407.213-.479.422a.834.834,0,0,0-.038.231c0,.054-.024.07-.059.068s-.049-.068-.043-.158c.019-.315.059-.653.072-.861.01-.148.01-.435.03-.732,0-.072.019-.135.062-.134s.051.04.046.094a.429.429,0,0,0,.029.234.139.139,0,0,0,.119.067,1.8,1.8,0,0,0,.466-.107l2.763-.85,0-.024c-.637-.3-2.5-1.192-2.884-1.359a.7.7,0,0,0-.216-.067.111.111,0,0,0-.118.07.773.773,0,0,0-.045.236c0,.053-.013.1-.054.1s-.056-.057-.049-.169c.019-.3.053-.546.057-.622.008-.1.008-.382.019-.562,0-.076.019-.123.062-.121s.049.04.046.1a.53.53,0,0,0,.053.3c.048.081.145.177.514.36.544.267.855.449,1.565.817.844.436,1.474.758,1.762.906.334.177.427.22.422.3s-.091.107-.376.2Zm1.275,2.672c-.9.057-1.07.067-1.259.091s-.3.091-.32.223a.815.815,0,0,0-.01.216c0,.059-.006.094-.054.1s-.051-.043-.057-.138c-.014-.224-.019-.6-.03-.774-.01-.148-.049-.5-.064-.724,0-.076,0-.126.04-.127s.062.032.065.091a1.028,1.028,0,0,0,.029.178c.04.158.143.2.353.2.189,0,.357-.01,1.259-.067l1.047-.067c.576-.037,1.044-.065,1.3-.107.159-.027.263-.076.275-.255a2.146,2.146,0,0,0,0-.3c0-.067.011-.1.043-.1s.062.043.065.108c.025.393.032.767.041.93.008.135.049.509.065.747,0,.076-.01.119-.053.121s-.049-.019-.053-.091a1.063,1.063,0,0,0-.038-.212c-.03-.118-.134-.148-.307-.154-.251-.013-.721.016-1.3.053Zm2.871,5.321c.45-.11.586-.218.6-.345a1,1,0,0,0-.025-.31c-.014-.064-.011-.1.024-.108s.07.04.088.121c.083.377.116.614.14.724.013.053.089.322.156.626.016.073.022.129-.03.14-.035.006-.054-.025-.067-.083a1,1,0,0,0-.086-.255c-.081-.142-.253-.127-.761-.024l-3.452.7c-.116.025-.2.025-.215-.032s.049-.132.132-.255c.06-.086.815-1.179,1.471-2.212.309-.482.974-1.45,1.046-1.569l-.006-.029-2.6.632c-.353.081-.452.159-.479.312a.979.979,0,0,0,.032.315c.016.07,0,.1-.032.105s-.065-.054-.086-.14c-.065-.3-.11-.584-.137-.707-.014-.065-.08-.28-.142-.567-.018-.076-.024-.135.022-.145s.06.024.076.094a.565.565,0,0,0,.056.169c.081.154.213.172.541.107l3.682-.74c.127-.029.185-.016.2.035a.365.365,0,0,1-.086.228c-.267.441-.866,1.353-1.332,2.088-.489.774-1.073,1.576-1.162,1.7l0,.018Zm.228,6.084c-.832.355-.985.422-1.156.508s-.25.172-.212.368a1.187,1.187,0,0,0,.076.221c.025.06.029.1-.011.113s-.065-.014-.1-.1c-.124-.29-.255-.64-.326-.805-.056-.131-.22-.47-.3-.665-.035-.083-.04-.126,0-.142s.064.011.086.067a.967.967,0,0,0,.084.151c.091.137.2.14.4.068.18-.064.334-.129,1.165-.485l.766-.328c.794-.342,1.06-.643,1.164-1a1.091,1.091,0,0,0-.07-.78,1.165,1.165,0,0,0-.618-.629,2.048,2.048,0,0,0-1.493.264l-.684.293c-.831.358-.985.423-1.156.508s-.248.174-.21.369a1.069,1.069,0,0,0,.068.205c.025.059.029.1-.01.113s-.065-.018-.1-.1c-.119-.279-.251-.63-.253-.635-.029-.067-.193-.4-.283-.616-.033-.076-.04-.119,0-.135s.062.011.091.076a.912.912,0,0,0,.084.153c.091.135.2.14.4.068.178-.064.333-.131,1.164-.487l.586-.25a2.25,2.25,0,0,1,1.87-.186,1.774,1.774,0,0,1,.88.968,1.92,1.92,0,0,1,.143,1.377,1.951,1.951,0,0,1-1.242,1.109Z" transform="translate(4.241 4.204)"/>
</svg>
